<svg width="89" height="45" viewBox="0 0 89 45" fill="none" xmlns="http://www.w3.org/2000/svg">
<path d="M0 0.724609H75L89 22.7246L75 44.7246H0V0.724609Z" fill="#08AF77"/>
<path d="M18.9121 13.1488V15.3738C15.7371 20.4988 14.1871 25.4988 13.7371 32.2238H10.2121C10.7621 25.5488 12.8371 20.5988 15.8871 15.6988H7.31211V13.1488H18.9121ZM27.5432 12.8238C31.3932 12.8238 33.5432 15.5738 33.5432 22.6238C33.5432 29.6988 31.3932 32.5738 27.4932 32.5738C23.5682 32.5738 21.5182 29.7488 21.5182 22.6738C21.5182 15.5988 23.6932 12.8238 27.5432 12.8238ZM27.5432 15.2988C25.5932 15.2988 24.7432 16.9988 24.7432 22.6488C24.7432 28.2738 25.5182 30.0988 27.4932 30.0988C29.5182 30.0988 30.3182 28.2488 30.3182 22.6488C30.3182 17.0238 29.5432 15.2988 27.5432 15.2988ZM37.7512 21.3378C39.1652 21.3378 40.1312 22.2898 40.1312 24.0958C40.1312 25.9018 39.1652 26.9098 37.7512 26.9098C36.3512 26.9098 35.3992 25.9018 35.3992 24.1098C35.3992 22.3038 36.3512 21.3378 37.7512 21.3378ZM37.7512 22.3038C37.0792 22.3038 36.7432 22.9058 36.7432 24.1098C36.7432 25.3278 37.0792 25.9578 37.7512 25.9578C38.4232 25.9578 38.7732 25.3278 38.7732 24.1098C38.7732 22.9058 38.4372 22.3038 37.7512 22.3038ZM44.2892 21.3378L37.7092 32.3978H36.8552L43.4492 21.3378H44.2892ZM43.4352 26.8258C44.8212 26.8258 45.7872 27.7778 45.7872 29.5838C45.7872 31.3898 44.8212 32.3978 43.4352 32.3978C42.0072 32.3978 41.0552 31.3898 41.0552 29.5838C41.0552 27.7918 42.0072 26.8258 43.4352 26.8258ZM43.4352 27.7778C42.7492 27.7778 42.4132 28.3938 42.4132 29.5978C42.4132 30.8158 42.7492 31.4458 43.4352 31.4458C44.0932 31.4458 44.4432 30.8158 44.4432 29.5978C44.4432 28.3938 44.1072 27.7778 43.4352 27.7778ZM51.8464 21.1558C54.6324 21.1558 56.4944 23.1718 56.4944 26.7698C56.4944 30.3538 54.6184 32.4118 51.8324 32.4118C49.0464 32.4118 47.1844 30.3818 47.1844 26.7978C47.1844 23.1998 49.0744 21.1558 51.8464 21.1558ZM51.8464 22.6118C50.2504 22.6118 49.1864 23.9978 49.1864 26.7838C49.1864 29.5558 50.2504 30.9558 51.8464 30.9558C53.4424 30.9558 54.4924 29.5558 54.4924 26.7838C54.4924 23.9978 53.4424 22.6118 51.8464 22.6118ZM65.6455 21.3378V22.8358H60.3955V25.7618H64.3715V27.2598H60.3955V32.2018H58.4915V21.3378H65.6455ZM74.5322 21.3378V22.8358H69.2822V25.7618H73.2582V27.2598H69.2822V32.2018H67.3782V21.3378H74.5322Z" fill="white"/>
</svg>
