<svg width="246" height="64" viewBox="0 0 246 64" fill="none" xmlns="http://www.w3.org/2000/svg">
<path d="M15.796 15.296V44.82H22.088V49.088H3.96V44.82H10.56V20.884C8.888 22.028 6.776 23.084 4.356 23.876L3.476 19.256C6.38 18.42 8.976 17.012 11.308 15.296H15.796ZM50.0387 20.444L44.6707 22.424C44.1427 19.96 42.7347 19.124 41.1507 19.124C37.1467 19.124 35.2547 23.304 35.0787 31.004C36.6187 28.364 39.1267 27.044 41.9427 27.044C47.1347 27.044 50.6987 31.136 50.6987 37.912C50.6987 45.172 46.4747 49.704 40.4467 49.704C33.9787 49.704 29.6667 44.952 29.6667 33.6C29.6667 20.312 34.1547 14.944 41.2827 14.944C45.7267 14.944 48.5427 16.88 50.0387 20.444ZM35.1227 35.536C35.1227 42.62 37.2347 45.48 40.4027 45.48C43.4827 45.48 45.1547 42.972 45.1547 38.088C45.1547 33.6 43.5707 31.268 40.6227 31.268C38.4227 31.268 36.4867 32.764 35.1227 35.536ZM67.4733 14.944C74.2493 14.944 78.0333 19.784 78.0333 32.192C78.0333 44.644 74.2493 49.704 67.3853 49.704C60.4773 49.704 56.8693 44.732 56.8693 32.28C56.8693 19.828 60.6973 14.944 67.4733 14.944ZM67.4733 19.3C64.0413 19.3 62.5453 22.292 62.5453 32.236C62.5453 42.136 63.9093 45.348 67.3853 45.348C70.9493 45.348 72.3573 42.092 72.3573 32.236C72.3573 22.336 70.9933 19.3 67.4733 19.3ZM91.552 43.148V49.088L88.252 55.952H85.524L88.472 49.088H85.26V43.148H91.552ZM109.385 14.944C116.161 14.944 119.945 19.784 119.945 32.192C119.945 44.644 116.161 49.704 109.297 49.704C102.389 49.704 98.781 44.732 98.781 32.28C98.781 19.828 102.609 14.944 109.385 14.944ZM109.385 19.3C105.953 19.3 104.457 22.292 104.457 32.236C104.457 42.136 105.821 45.348 109.297 45.348C112.861 45.348 114.269 42.092 114.269 32.236C114.269 22.336 112.905 19.3 109.385 19.3ZM136.808 14.944C143.584 14.944 147.368 19.784 147.368 32.192C147.368 44.644 143.584 49.704 136.72 49.704C129.812 49.704 126.204 44.732 126.204 32.28C126.204 19.828 130.032 14.944 136.808 14.944ZM136.808 19.3C133.376 19.3 131.88 22.292 131.88 32.236C131.88 42.136 133.244 45.348 136.72 45.348C140.284 45.348 141.692 42.092 141.692 32.236C141.692 22.336 140.328 19.3 136.808 19.3ZM164.23 14.944C171.006 14.944 174.79 19.784 174.79 32.192C174.79 44.644 171.006 49.704 164.142 49.704C157.234 49.704 153.626 44.732 153.626 32.28C153.626 19.828 157.454 14.944 164.23 14.944ZM164.23 19.3C160.798 19.3 159.302 22.292 159.302 32.236C159.302 42.136 160.666 45.348 164.142 45.348C167.706 45.348 169.114 42.092 169.114 32.236C169.114 22.336 167.75 19.3 164.23 19.3Z" fill="#333333"/>
<path d="M193.2 36.83V42.986C193.2 44.552 193.236 45.488 193.236 46.1C193.236 46.82 193.074 47.27 192.66 47.594C192.228 47.936 191.634 48.062 189.726 48.062C189.15 48.062 189.132 48.044 189.024 47.486C188.916 46.946 188.754 46.478 188.556 46.1C189.312 46.172 190.158 46.19 190.59 46.19C191.13 46.19 191.292 46.028 191.292 45.578V41.078H180.78V44.912C180.78 46.874 180.816 47.882 180.816 47.99C180.816 48.17 180.798 48.188 180.6 48.188H179.034C178.854 48.188 178.836 48.17 178.836 47.99C178.836 47.864 178.872 46.766 178.872 44.462V36.758C178.872 34.454 178.836 33.32 178.836 33.212C178.836 33.014 178.854 32.996 179.034 32.996C179.16 32.996 179.772 33.032 181.482 33.032H190.608C192.318 33.032 192.93 32.996 193.038 32.996C193.218 32.996 193.236 33.014 193.236 33.212C193.236 33.32 193.2 34.526 193.2 36.83ZM191.292 34.796H186.882V39.332H191.292V34.796ZM180.78 39.332H185.01V34.796H180.78V39.332ZM201.336 31.25L201.876 31.754C199.518 34.436 198.69 37.01 198.69 40.16C198.69 43.328 199.518 45.884 201.876 48.566L201.336 49.07C198.348 46.424 197.052 43.652 197.052 40.16C197.052 36.704 198.366 33.914 201.336 31.25ZM212.502 35.426H214.716C215.094 34.598 215.382 33.842 215.634 33.068C215.706 32.78 215.796 32.42 215.832 31.952C216.462 32.078 217.182 32.24 217.614 32.402C217.758 32.456 217.848 32.546 217.848 32.654C217.848 32.78 217.794 32.852 217.686 32.96C217.542 33.086 217.452 33.266 217.362 33.518C217.11 34.04 216.858 34.652 216.462 35.426C217.74 35.426 218.244 35.39 218.352 35.39C218.532 35.39 218.55 35.408 218.55 35.606C218.55 35.714 218.514 36.128 218.514 37.154V39.332C218.514 40.34 218.55 40.79 218.55 40.898C218.55 41.078 218.532 41.096 218.352 41.096C218.244 41.096 217.704 41.06 216.282 41.06V45.776C216.282 46.1 216.318 46.262 216.462 46.37C216.552 46.442 216.768 46.496 217.074 46.496C217.506 46.496 217.686 46.424 217.812 46.28C217.956 46.1 218.01 45.668 218.028 44.228C218.334 44.444 218.82 44.678 219.126 44.75C219.594 44.894 219.594 44.894 219.558 45.362C219.486 46.856 219.234 47.486 218.874 47.774C218.46 48.08 217.722 48.206 216.876 48.206C215.94 48.206 215.364 48.116 215.076 47.918C214.752 47.684 214.554 47.342 214.554 46.478V41.06H213.456C213.366 44.984 212.304 46.928 210.072 48.242C209.838 48.368 209.712 48.44 209.622 48.44C209.514 48.44 209.442 48.332 209.244 48.062C208.956 47.684 208.596 47.324 208.29 47.108C210.666 46.082 211.71 44.516 211.764 41.06C210.756 41.078 210.36 41.096 210.288 41.096C210.09 41.096 210.072 41.078 210.072 40.898C210.072 40.772 210.108 40.34 210.108 39.332V37.154C210.108 36.128 210.072 35.714 210.072 35.606C210.072 35.408 210.09 35.39 210.288 35.39C210.378 35.39 210.936 35.426 212.502 35.426ZM216.768 39.422V37.046H211.836V39.422H216.768ZM205.824 34.814L204.69 35.084C204.132 35.192 204.132 35.192 203.898 34.652C203.736 34.274 203.556 33.968 203.304 33.68C205.068 33.41 206.544 32.978 207.606 32.51C207.93 32.384 208.11 32.258 208.362 32.096C208.776 32.456 209.118 32.816 209.442 33.176C209.55 33.302 209.586 33.356 209.586 33.482C209.586 33.626 209.46 33.716 209.28 33.716C209.118 33.716 208.92 33.806 208.686 33.896C208.326 34.04 207.948 34.166 207.552 34.292V36.902C208.758 36.902 209.172 36.866 209.28 36.866C209.46 36.866 209.478 36.884 209.478 37.064V38.306C209.478 38.504 209.46 38.522 209.28 38.522C209.172 38.522 208.812 38.504 207.822 38.486C208.398 39.674 209.01 40.556 209.82 41.294C209.604 41.618 209.352 42.122 209.19 42.608C209.136 42.806 209.064 42.896 208.992 42.896C208.92 42.896 208.83 42.788 208.704 42.608C208.218 41.888 207.84 41.24 207.498 40.322C207.498 44.768 207.606 47.9 207.606 48.224C207.606 48.386 207.588 48.404 207.408 48.404H205.986C205.788 48.404 205.77 48.386 205.77 48.224C205.77 47.918 205.878 44.966 205.914 41.096C205.446 42.482 204.798 43.67 204.078 44.696C203.952 44.876 203.862 44.966 203.772 44.966C203.7 44.966 203.628 44.876 203.556 44.678C203.358 44.192 203.088 43.688 202.836 43.4C203.88 42.212 204.96 40.646 205.626 38.486H205.194C203.88 38.486 203.466 38.522 203.34 38.522C203.178 38.522 203.16 38.504 203.16 38.306V37.064C203.16 36.884 203.178 36.866 203.34 36.866C203.466 36.866 203.88 36.902 205.194 36.902H205.824V34.814ZM210.846 32.546L211.854 32.096C212.088 31.988 212.106 31.988 212.214 32.15C212.682 32.798 213.168 33.68 213.492 34.49C213.546 34.67 213.528 34.706 213.294 34.814L212.196 35.318C211.98 35.426 211.944 35.426 211.872 35.228C211.584 34.418 211.188 33.608 210.684 32.852C210.594 32.69 210.612 32.654 210.846 32.546ZM228.954 32.888H230.556C231.384 32.888 231.96 32.852 232.194 32.852C232.32 32.852 232.374 32.942 232.374 33.05C232.374 33.464 232.356 34.472 232.59 35.696C233.112 38.684 234.876 41.528 237.648 43.292C237.342 43.634 236.946 44.174 236.694 44.696C236.55 44.966 236.478 45.092 236.37 45.092C236.28 45.092 236.154 45.02 235.974 44.858C233.778 43.094 232.302 40.718 231.6 38.018C230.916 40.754 229.584 42.896 227.496 44.714C227.298 44.876 227.19 44.966 227.1 44.966C227.01 44.966 226.92 44.858 226.722 44.624C226.344 44.12 225.966 43.796 225.606 43.562C228.486 41.546 230.106 38.738 230.52 34.634H228.954C227.838 34.634 227.514 34.67 227.406 34.67C227.208 34.67 227.19 34.652 227.19 34.454V33.05C227.19 32.87 227.208 32.852 227.406 32.852C227.514 32.852 227.838 32.888 228.954 32.888ZM225.3 40.592V44.408C225.678 45.146 226.038 45.596 226.776 45.902C227.406 46.154 228.54 46.262 230.106 46.262C232.428 46.262 235.164 46.136 237.846 45.866C237.594 46.244 237.432 46.73 237.36 47.27C237.27 47.846 237.27 47.846 236.694 47.882C234.408 48.008 232.266 48.062 230.394 48.062C228.54 48.062 227.046 47.9 226.182 47.54C225.354 47.198 224.868 46.694 224.418 45.938C223.86 46.478 223.23 47.018 222.564 47.522C222.384 47.666 222.276 47.774 222.204 47.882C222.114 48.008 222.042 48.062 221.934 48.062C221.862 48.062 221.754 47.972 221.682 47.828C221.43 47.36 221.196 46.784 220.944 46.136C221.412 45.92 221.664 45.794 222.006 45.578C222.528 45.254 223.05 44.84 223.518 44.426V40.448H222.636C221.664 40.448 221.412 40.484 221.322 40.484C221.124 40.484 221.106 40.466 221.106 40.268V38.882C221.106 38.702 221.124 38.684 221.322 38.684C221.412 38.684 221.664 38.72 222.636 38.72H223.788C224.742 38.72 225.03 38.684 225.138 38.684C225.318 38.684 225.336 38.702 225.336 38.882C225.336 38.99 225.3 39.494 225.3 40.592ZM225.228 35.57L224.184 36.344C224.058 36.434 224.004 36.47 223.95 36.47C223.896 36.47 223.86 36.434 223.806 36.344C223.14 35.264 222.402 34.292 221.592 33.536C221.448 33.41 221.484 33.356 221.682 33.23L222.69 32.564C222.888 32.438 222.924 32.42 223.068 32.546C223.896 33.32 224.67 34.202 225.318 35.228C225.426 35.39 225.426 35.426 225.228 35.57ZM238.602 31.754L239.16 31.25C242.112 33.914 243.426 36.704 243.426 40.16C243.426 43.652 242.13 46.424 239.16 49.07L238.602 48.566C240.96 45.884 241.788 43.328 241.788 40.16C241.788 37.01 240.978 34.436 238.602 31.754Z" fill="#333333"/>
</svg>
