<svg width="101" height="50" viewBox="0 0 101 50" fill="none" xmlns="http://www.w3.org/2000/svg">
<path d="M101 0.707031L101 28.707L50.5 49.707L-1.22392e-06 28.707L0 0.707027L101 0.707031Z" fill="#08AF77"/>
<path d="M28.9121 10.4262V12.6512C25.7371 17.7762 24.1871 22.7762 23.7371 29.5012H20.2121C20.7621 22.8262 22.8371 17.8762 25.8871 12.9762H17.3121V10.4262H28.9121ZM37.5432 10.1012C41.3932 10.1012 43.5432 12.8512 43.5432 19.9012C43.5432 26.9762 41.3932 29.8512 37.4932 29.8512C33.5682 29.8512 31.5182 27.0262 31.5182 19.9512C31.5182 12.8762 33.6932 10.1012 37.5432 10.1012ZM37.5432 12.5762C35.5932 12.5762 34.7432 14.2762 34.7432 19.9262C34.7432 25.5512 35.5182 27.3762 37.4932 27.3762C39.5182 27.3762 40.3182 25.5262 40.3182 19.9262C40.3182 14.3012 39.5432 12.5762 37.5432 12.5762ZM47.7512 18.6152C49.1652 18.6152 50.1312 19.5672 50.1312 21.3732C50.1312 23.1792 49.1652 24.1872 47.7512 24.1872C46.3512 24.1872 45.3992 23.1792 45.3992 21.3872C45.3992 19.5812 46.3512 18.6152 47.7512 18.6152ZM47.7512 19.5812C47.0792 19.5812 46.7432 20.1832 46.7432 21.3872C46.7432 22.6052 47.0792 23.2352 47.7512 23.2352C48.4232 23.2352 48.7732 22.6052 48.7732 21.3872C48.7732 20.1832 48.4372 19.5812 47.7512 19.5812ZM54.2892 18.6152L47.7092 29.6752H46.8552L53.4492 18.6152H54.2892ZM53.4352 24.1032C54.8212 24.1032 55.7872 25.0552 55.7872 26.8612C55.7872 28.6672 54.8212 29.6752 53.4352 29.6752C52.0072 29.6752 51.0552 28.6672 51.0552 26.8612C51.0552 25.0692 52.0072 24.1032 53.4352 24.1032ZM53.4352 25.0552C52.7492 25.0552 52.4132 25.6712 52.4132 26.8752C52.4132 28.0932 52.7492 28.7232 53.4352 28.7232C54.0932 28.7232 54.4432 28.0932 54.4432 26.8752C54.4432 25.6712 54.1072 25.0552 53.4352 25.0552ZM61.8464 18.4332C64.6324 18.4332 66.4944 20.4492 66.4944 24.0472C66.4944 27.6312 64.6184 29.6892 61.8324 29.6892C59.0464 29.6892 57.1844 27.6592 57.1844 24.0752C57.1844 20.4772 59.0744 18.4332 61.8464 18.4332ZM61.8464 19.8892C60.2504 19.8892 59.1864 21.2752 59.1864 24.0612C59.1864 26.8332 60.2504 28.2332 61.8464 28.2332C63.4424 28.2332 64.4924 26.8332 64.4924 24.0612C64.4924 21.2752 63.4424 19.8892 61.8464 19.8892ZM75.6455 18.6152V20.1132H70.3955V23.0392H74.3715V24.5372H70.3955V29.4792H68.4915V18.6152H75.6455ZM84.5322 18.6152V20.1132H79.2822V23.0392H83.2582V24.5372H79.2822V29.4792H77.3782V18.6152H84.5322Z" fill="white"/>
</svg>
